<!-- icon666.com - MILLIONS OF FREE VECTOR ICONS --><svg id="Capa_1" enable-background="new 0 0 510.033 510.033" viewBox="0 0 510.033 510.033" xmlns="http://www.w3.org/2000/svg"><g><path d="m17.666 161.41c-9.8 24.87-15.65 51.33-17.22 78.6h67.24z"></path><path d="m151.766 377.05-58.95-41.27c-8.02-5.61-12.8-14.8-12.8-24.58v-41.19h-79.57c3.93 68.196 34.59 131.054 86.32 176.63 67.887-72.694 64.715-69.305 65-69.59z"></path><path d="m193.826 240.01c4.09-16.72 14.89-30.85 29.36-39.35-4.695-5.716-3.272-3.536-24.68-67.76l-35.76 19.86c-19.128 10.629-42.799-2.133-44.48-23.92-.047-.732-1.013-22.122-3.94-86.6-33.178 22.024-61.505 52.159-81.41 87.24l70.34 110.53z"></path><path d="m183.936 106.68c16.409-9.128 37.067-1.097 43.03 16.73l19.4 58.21 67.79-55.47 36.03-107.87c-64.786-26.014-140.72-24.832-206.59 7.21l4.59 101.04z"></path><path d="m333.156 149.37-56.71 46.4c19.62 7.11 34.74 23.72 39.76 44.24h51.81v-47.52c0-18.417 16.446-32.432 34.56-29.65 1.133.211-6.406-1.335 97.14 20.01-19.643-66.994-65.792-120.655-122.22-151.64l-34.88 104.43c-1.79 5.38-5.07 10.13-9.46 13.73z"></path><path d="m368.556 395.62-58.62 31.97c-16.329 8.928-36.886.931-42.82-16.85l-18.1-54.3c-19.719-44.357-19.39-43.82-19.49-43.82-17.64-7.84-31.03-23.52-35.7-42.61h-83.81v41.19l58.96 41.27c15.244 10.679 17.13 32.408 4.22 45.57l-62.7 67.15c88.379 61.042 208.928 60.425 297.24-5.91-41.904-67.947-38.746-62.764-39.18-63.66z"></path><circle cx="255.016" cy="255.01" r="33"></circle><path d="m264.446 317.3c15.83 35.613 8.852 17.126 31.13 83.96l58.61-31.97c14.711-8.039 33.044-2.439 40.84 12.23l35.85 58.14c45.056-42.651 74.835-102.407 78.71-169.65h-193.38c-6.01 24.54-26.44 43.48-51.76 47.29z"></path><path d="m398.016 240.01h111.57c-.49-8.44-1.38-16.8-2.68-25.05l-108.89-22.45z"></path></g></svg>